<svg width="60" height="60" viewBox="0 0 60 60" fill="none" xmlns="http://www.w3.org/2000/svg">
<g clip-path="url(#clip0_10_43)">
<path d="M30.1912 7.49628H30.525C33.6075 7.50753 49.2262 7.62003 53.4375 8.75253C54.7106 9.09816 55.8707 9.77186 56.8018 10.7063C57.733 11.6408 58.4026 12.8032 58.7438 14.0775C59.1225 15.5025 59.3888 17.3888 59.5688 19.335L59.6063 19.725L59.6888 20.7L59.7188 21.09C59.9625 24.5175 59.9925 27.7275 59.9963 28.4288V28.71C59.9925 29.4375 59.9587 32.865 59.6888 36.435L59.6588 36.8288L59.625 37.2188C59.4375 39.3638 59.16 41.4938 58.7438 43.0613C58.4036 44.3361 57.7344 45.4991 56.8031 46.4337C55.8718 47.3683 54.7111 48.0417 53.4375 48.3863C49.0875 49.5563 32.5537 49.6388 30.2625 49.6425H29.73C28.5712 49.6425 23.7787 49.62 18.7537 49.4475L18.1162 49.425L17.79 49.41L17.1488 49.3838L16.5075 49.3575C12.345 49.1738 8.38125 48.8775 6.555 48.3825C5.28184 48.0383 4.12149 47.3655 3.19022 46.4316C2.25894 45.4976 1.58943 44.3354 1.24875 43.0613C0.8325 41.4975 0.555 39.3638 0.3675 37.2188L0.3375 36.825L0.3075 36.435C0.122428 33.894 0.0198745 31.3477 0 28.8L0 28.3388C0.0075 27.5325 0.0375 24.7463 0.24 21.6713L0.26625 21.285L0.2775 21.09L0.3075 20.7L0.39 19.725L0.4275 19.335C0.6075 17.3888 0.87375 15.4988 1.2525 14.0775C1.5926 12.8027 2.26186 11.6397 3.19317 10.7051C4.12449 9.77048 5.28514 9.09712 6.55875 8.75253C8.385 8.26503 12.3487 7.96503 16.5112 7.77753L17.1488 7.75128L17.7937 7.72878L18.1162 7.71753L18.7575 7.69128C22.3264 7.57643 25.8968 7.51268 29.4675 7.50003H30.1912V7.49628ZM24 19.5338V37.6013L39.5887 28.5713L24 19.5338Z" fill="#E6F4F1"/>
</g>
<defs>
<clipPath id="clip0_10_43">
<rect width="60" height="60" fill="white"/>
</clipPath>
</defs>
</svg>
