<svg width="60" height="60" viewBox="0 0 60 60" fill="none" xmlns="http://www.w3.org/2000/svg">
<path d="M44.75 27.25C36.75 22.5 23.375 22 15.75 24.375C14.5 24.75 13.25 24 12.875 22.875C12.5 21.625 13.25 20.375 14.375 20C23.25 17.375 37.875 17.875 47.125 23.375C48.25 24 48.625 25.5 48 26.625C47.375 27.5 45.875 27.875 44.75 27.25ZM44.5 34.25C43.875 35.125 42.75 35.5 41.875 34.875C35.125 30.75 24.875 29.5 17 32C16 32.25 14.875 31.75 14.625 30.75C14.375 29.75 14.875 28.625 15.875 28.375C25 25.625 36.25 27 44 31.75C44.75 32.125 45.125 33.375 44.5 34.25ZM41.5 41.125C41 41.875 40.125 42.125 39.375 41.625C33.5 38 26.125 37.25 17.375 39.25C16.5 39.5 15.75 38.875 15.5 38.125C15.25 37.25 15.875 36.5 16.625 36.25C26.125 34.125 34.375 35 40.875 39C41.75 39.375 41.875 40.375 41.5 41.125ZM30 5C26.717 5 23.4661 5.64664 20.4329 6.90301C17.3998 8.15938 14.6438 10.0009 12.3223 12.3223C7.63392 17.0107 5 23.3696 5 30C5 36.6304 7.63392 42.9893 12.3223 47.6777C14.6438 49.9991 17.3998 51.8406 20.4329 53.097C23.4661 54.3534 26.717 55 30 55C36.6304 55 42.9893 52.3661 47.6777 47.6777C52.3661 42.9893 55 36.6304 55 30C55 26.717 54.3534 23.4661 53.097 20.4329C51.8406 17.3998 49.9991 14.6438 47.6777 12.3223C45.3562 10.0009 42.6002 8.15938 39.5671 6.90301C36.5339 5.64664 33.283 5 30 5Z" fill="#E6F4F1"/>
</svg>
