<svg width="60" height="60" viewBox="0 0 60 60" fill="none" xmlns="http://www.w3.org/2000/svg">
<g clip-path="url(#clip0_10_45)">
<path d="M22.46 6.48999V50.3575L32.2475 53.51V16.72C32.2475 14.995 33.0075 13.8425 34.2325 14.2425C35.8225 14.6925 36.1325 16.2775 36.1325 18.005V32.6925C42.235 35.675 47.0375 32.6875 47.0375 24.8125C47.0375 16.72 44.2225 13.125 35.9425 10.245C32.675 9.12499 26.6225 7.27999 22.4675 6.48999H22.46ZM34.1 47.0925L49.84 41.405C51.6275 40.76 51.905 39.8425 50.455 39.36C48.99 38.88 46.3625 39.0125 44.5625 39.6675L34.05 43.4175V37.45L34.65 37.2375C34.65 37.2375 37.6525 36.1875 41.9325 35.7C46.1725 35.25 51.395 35.775 55.525 37.3525C60.145 38.855 60.625 41.0325 59.465 42.5325C58.3025 44.0325 55.41 45.1225 55.41 45.1225L34.05 52.89V47.15L34.1 47.0925ZM4.5175 46.5C-0.232499 45.1375 -1.0175 42.33 1.1375 40.7C3.14 39.235 6.5375 38.07 6.5375 38.07L20.575 33.0375V38.82L10.5125 42.5C8.75 43.1775 8.45 44.08 9.915 44.565C11.38 45.0525 14.0075 44.94 15.7725 44.265L20.6175 42.5V47.685C20.3175 47.76 19.9775 47.795 19.6425 47.8675C14.795 48.695 9.6525 48.3575 4.5475 46.67L4.5175 46.5Z" fill="#E6F4F1"/>
</g>
<defs>
<clipPath id="clip0_10_45">
<rect width="60" height="60" fill="white"/>
</clipPath>
</defs>
</svg>
